<svg xmlns="http://www.w3.org/2000/svg" width="100" height="100" fill="currentColor">
	<path d="M38.38,30.44a.94.94,0,1,0-.93-.94A.93.93,0,0,0,38.38,30.44Zm0-1v.13a.07.07,0,0,1-.07-.07Z" />
	<path d="M50,21.05a.93.93,0,1,0-.93-.93A.93.93,0,0,0,50,21.05Zm0-1v.14a.07.07,0,0,1-.07-.07Z" />
	<path d="M50,31.05a.93.93,0,1,0-.93-.93A.93.93,0,0,0,50,31.05Zm0-1v.14a.07.07,0,0,1-.07-.07Z" />
	<path d="M50,39.19a.93.93,0,1,0,.93.93A.93.93,0,0,0,50,39.19Zm0,1a.07.07,0,0,1-.07-.07l.07-.07Z" />
	<path d="M50,50.19a.93.93,0,1,0,.93.93A.93.93,0,0,0,50,50.19Zm0,1a.07.07,0,0,1-.07-.07l.07-.07Z" />
	<path d="M50,61.19a.93.93,0,1,0,.93.93A.93.93,0,0,0,50,61.19Zm0,1a.07.07,0,0,1-.07-.07l.07-.07Z" />
	<path d="M50,74.05a.93.93,0,1,0-.93-.93A.93.93,0,0,0,50,74.05Zm0-1v.14a.07.07,0,0,1-.07-.07Z" />
	<path d="M85,63.93l-.81-7.27c-.29-2.06-.52-4-.75-6-.26-2.21-.52-4.49-.88-7L79.47,28.46a20.79,20.79,0,0,0-3-7.34,10.85,10.85,0,0,0-4.22-3.73L61.81,12.28l-3.14-4.2H41.33l-3.15,4.2L27.77,17.39a10.85,10.85,0,0,0-4.22,3.73,20.79,20.79,0,0,0-3,7.34L17.46,43.68c-.36,2.45-.62,4.72-.88,6.92-.23,2-.46,4-.75,6.07L15,63.93a160.7,160.7,0,0,0-.95,17.42V91.92H26.31l.39-5.77a84.69,84.69,0,0,1,1.18-9.23l.77-4.13.78,3.67H70.74l.69-3.24.69,3.7a84.69,84.69,0,0,1,1.18,9.23l.44,5.77H85.93V81.35A161,161,0,0,0,85,63.93ZM72.36,18.62,72.21,20c-.27,2.44-.44,4.91-.58,7.37h-19V19l8.57,2.53.68-8,9.86,4.85C72,18.39,72.17,18.51,72.36,18.62ZM28.86,70.44l-.5-20.64c-.08-3.24-.05-6.53.1-9.78q.24-5.81,0-11.65h3.65v2l.52,8.07,2.33,1.08.23,30.94ZM43.22,37.76,42,38.32,42.06,31l1.62-.42ZM38.38,40l-2.47-1.15,0-7.54,2.51.65h0l2.67-.68L41,38.79Zm-4.83-2.25-.47-7.15,1.77.46.06,7.33ZM43.7,29.58l-5.32,1.36-5.31-1.36V28.37H43.7ZM36.15,70.44,35.92,40l2.47,1.14L41,39.9l-.23,30.54Zm5.85-31,2.18-1,.52-8.07v-2h7V70.44H41.76ZM52.67,28.37H55.3v2l.52,8.07,2.18,1,.24,31H52.67Zm13.78,9.39-1.36.64.06-7.33,1.77-.46ZM61.62,40,59,38.79l-.06-7.5,2.67.68h0l2.51-.65,0,7.54Zm-4.84-2.25-.46-7.15,1.62.42L58,38.32Zm10.15-8.18-5.31,1.36L56.3,29.58V28.37H66.93ZM59.24,70.44,59,39.9l2.6,1.21L64.08,40l-.23,30.47ZM65.08,39.5l2.33-1.08.52-8.07v-2h3.65q-.27,5.83,0,11.65c.14,3.23.18,6.52.1,9.78l-.5,20.64H64.85ZM39.64,20.19,39,12.82l2.65-3.54L46.91,18Zm21.85-7.52Zm-1.13,7.52L53.09,18l5.23-8.76L61,12.82Zm-4.91-8.06H44.56v0L42.73,9.08H57.27Zm-10.3,1h9.7l-3.18,5.33a8.55,8.55,0,0,0-4-1.09ZM28.21,18.29l9.87-4.85.68,8,9.67-2.85-.13-.22a7.39,7.39,0,0,1,3.37,1.19v7.76H28.37c-.14-2.46-.31-4.93-.58-7.37l-.15-1.37A6.59,6.59,0,0,1,28.21,18.29ZM15.07,87.92h10.5l-.22,3H15.07ZM26.9,76.74a86.41,86.41,0,0,0-1.2,9.34l-.06.84H15.07V81.35A158.68,158.68,0,0,1,16,64l.8-7.24c.29-2.08.52-4,.76-6.08s.51-4.46.86-6.87l3.07-15.19a19.82,19.82,0,0,1,2.87-7,9.92,9.92,0,0,1,2.32-2.43l.09.86A130.71,130.71,0,0,1,27.46,40c-.15,3.27-.18,6.58-.1,9.84l.53,21.61Zm2.48-5.3H51.67v4H30.24Zm40.55,4H52.67v-4H70.78Zm3.17,1.28-1-5.31.53-21.61c.08-3.28,0-6.59-.1-9.84a130.71,130.71,0,0,1,.67-19.88l.09-.86a9.92,9.92,0,0,1,2.32,2.43,19.82,19.82,0,0,1,2.87,7l3.06,15.16c.36,2.44.62,4.72.88,6.91s.46,4,.75,6.05L84,64a159,159,0,0,1,1,17.31v5.57H74.36l-.06-.84A86.41,86.41,0,0,0,73.1,76.74ZM84.93,90.92H74.65l-.22-3h10.5Z" />
	<path d="M61.62,30.44a.94.94,0,1,0-.93-.94A.94.94,0,0,0,61.62,30.44Zm0-1s.07,0,.07.06l-.07.07Z" />
</svg>