<svg xmlns="http://www.w3.org/2000/svg" viewBox="0 -35 250 565" width="100" height="100" fill="currentColor">
	<path d="M240.678,476.549h-44.87c-2.209,0-4,1.791-4,4s1.791,4,4,4h44.87c2.209,0,4-1.791,4-4S242.887,476.549,240.678,476.549z" />
	<path d="M269.603,110.846c-1.2-35.55-2.879-71.578-4.99-107.083C264.488,1.649,262.738,0,260.62,0H11.345   C9.228,0,7.478,1.649,7.352,3.763c-2.111,35.505-3.79,71.533-4.99,107.083c-4.358,129.117-2.68,260.127,4.99,389.391   C7.477,502.35,9.228,504,11.345,504h84.753c2.029,0,3.737-1.519,3.973-3.535l35.912-306.486l35.912,306.486   c0.236,2.016,1.943,3.535,3.973,3.535h84.753c2.117,0,3.868-1.65,3.993-3.763C272.283,370.973,273.962,239.962,269.603,110.846z    M15.116,8h91.939v21.176H31.287c-2.209,0-4,1.791-4,4s1.791,4,4,4h10.957v42.598l-31.582,23.104   C11.789,71.33,13.273,39.479,15.116,8z M256.849,496h-77.423l-39.47-336.857c-0.236-2.016-1.943-3.535-3.973-3.535   s-3.737,1.519-3.973,3.535L92.54,496H15.116c-7.428-127.151-9.045-255.952-4.819-382.944l38.308-28.024   c1.03-0.753,1.638-1.953,1.638-3.229V37.176h56.812v54.353c0,2.209,1.791,4,4,4s4-1.791,4-4V8h141.794   c1.843,31.479,3.327,63.33,4.455,94.878l-31.582-23.104V37.176h10.957c2.209,0,4-1.791,4-4s-1.791-4-4-4h-69.797   c-2.209,0-4,1.791-4,4s1.791,4,4,4h50.841v44.627c0,1.276,0.608,2.475,1.638,3.229l38.308,28.024   C265.894,240.048,264.277,368.849,256.849,496z" />
	<path d="M76.156,476.549h-44.87c-2.209,0-4,1.791-4,4s1.791,4,4,4h44.87c2.209,0,4-1.791,4-4S78.365,476.549,76.156,476.549z" />
	<path d="M140.968,19.451c-7.704,0-13.971,6.157-13.971,13.725c0,7.568,6.267,13.726,13.971,13.726s13.971-6.157,13.971-13.726   C154.939,25.608,148.672,19.451,140.968,19.451z M140.968,38.902c-3.292,0-5.971-2.568-5.971-5.726   c0-3.157,2.678-5.725,5.971-5.725s5.971,2.568,5.971,5.725C146.939,36.333,144.26,38.902,140.968,38.902z" />

</svg>