<svg xmlns="http://www.w3.org/2000/svg" viewBox="0 -40 480 600" width="100" height="100" fill="currentColor">
	<path d="M0.019,433.427c0.022,6.709,4.674,12.342,10.91,13.912l6.133,40.205c1.454,9.535,9.511,16.456,19.156,16.456h52.599  c5.656,0,11.014-2.461,14.699-6.751c3.686-4.29,5.311-9.958,4.458-15.55l-3.504-22.966c2.781,0.892,5.714,1.361,8.723,1.361h253.788  c3.01,0,5.942-0.469,8.723-1.361l-3.504,22.966c-0.853,5.592,0.771,11.26,4.458,15.55c3.686,4.29,9.043,6.751,14.699,6.751h52.599  c9.646,0,17.702-6.921,19.156-16.456l6.133-40.205c6.237-1.569,10.888-7.202,10.91-13.912c0.209-63.089-0.937-273.57-24.475-333.257  c-11.499-29.158-39.137-54.877-82.147-76.439C341.8,7.82,313.832,0.436,312.657,0.129c-1.036-0.271-2.143-0.112-3.063,0.438  c-0.353,0.211-35.614,21.058-69.505,21.058S170.936,0.778,170.584,0.567c-0.92-0.55-2.025-0.708-3.063-0.438  c-1.175,0.307-29.143,7.69-60.879,23.602c-43.01,21.563-70.648,47.281-82.147,76.439C0.956,159.857-0.191,370.338,0.019,433.427z   M36.219,495.999c-5.664,0-10.394-4.063-11.248-9.663l-5.881-38.548h19.811l7.354,48.211H36.219z M54.348,495.999l-7.354-48.211  h19.811l7.355,48.211H54.348z M97.449,492.035c-2.164,2.52-5.31,3.964-8.631,3.964h-6.565l-7.355-48.211h14.879  c0.925,1.336,1.965,2.607,3.128,3.792c0.872,0.888,1.797,1.705,2.759,2.462l4.403,28.863  C100.567,486.189,99.613,489.516,97.449,492.035z M118.175,452.093h-4.98c-5.529,0-10.708-2.173-14.582-6.118  c-3.875-3.945-5.953-9.162-5.853-14.691l0.595-32.802h24.82V452.093z M200.975,99.775c-10.857-4.361-20.053-10.459-27.834-17.569  l16.022-20.758c5.796,5.819,12.433,10.428,19.788,13.757L200.975,99.775z M216.429,78.079c6.16,1.959,12.734,3.115,19.66,3.434  v25.332c-10.124-0.326-19.282-1.884-27.566-4.411L216.429,78.079z M240.089,114.917c29.638,0,54.734-9.722,74.592-28.894  c1.23-1.188,2.433-2.424,3.62-3.686L382.4,154.66l4.278,235.821H93.5l4.278-235.821l64.098-72.323  c1.188,1.262,2.39,2.499,3.621,3.687C185.354,105.196,210.451,114.917,240.089,114.917z M271.654,102.434  c-8.283,2.528-17.442,4.086-27.566,4.411V81.514c6.926-0.319,13.5-1.476,19.66-3.434L271.654,102.434z M271.226,75.203  c7.355-3.328,13.992-7.937,19.788-13.757l16.022,20.758c-7.781,7.111-16.977,13.209-27.834,17.569L271.226,75.203z M157.48,452.093  h-31.305v-53.611h31.305V452.093z M196.784,452.093H165.48v-53.611h31.304V452.093z M236.089,452.093h-31.305v-53.611h31.305  V452.093z M275.393,452.093h-31.305v-53.611h31.305V452.093z M314.697,452.093h-31.304v-53.611h31.304V452.093z M354.002,452.093  h-31.305v-53.611h31.305V452.093z M366.983,452.093h-4.98v-53.611h24.82l0.595,32.802c0.1,5.529-1.979,10.746-5.853,14.691  C377.691,449.92,372.512,452.093,366.983,452.093z M397.925,495.999h-6.565c-3.321,0-6.467-1.444-8.631-3.964  s-3.118-5.847-2.618-9.13l4.403-28.863c0.962-0.757,1.886-1.573,2.759-2.462c1.163-1.185,2.203-2.456,3.128-3.792h14.879  L397.925,495.999z M425.829,495.999h-19.812l7.355-48.211h19.811L425.829,495.999z M455.206,486.336  c-0.854,5.6-5.584,9.663-11.248,9.663h-10.037l7.354-48.211h19.811L455.206,486.336z M448.241,103.106  c23.609,59.865,24.065,285.643,23.917,330.294c-0.012,3.522-2.89,6.389-6.415,6.389h-71.499c0.822-2.767,1.226-5.675,1.172-8.649  l-3.222-177.618l36.615-109.767c0.699-2.096-0.433-4.361-2.529-5.061c-2.096-0.697-4.361,0.434-5.06,2.529l-29.461,88.321  l-1.376-75.878l16.307-54.017c0.639-2.115-0.558-4.347-2.673-4.985c-2.115-0.638-4.347,0.558-4.985,2.673l-14.418,47.76  l-60.996-68.823c11.814-14.485,21.117-32.896,27.295-54.092C385.646,36.945,432.597,63.438,448.241,103.106z M315.05,9.136  c5.533,1.657,15.834,4.958,28.429,9.983c-2.144,7.476-5.064,15.855-9.011,24.392l-24.48-13.304  C312.314,23.584,314.018,16.505,315.05,9.136z M330.914,50.685c-4.749,8.958-10.703,17.855-18.153,25.844l-16.333-21.161  c4.12-5.214,7.669-11.166,10.578-17.675L330.914,50.685z M240.089,29.624c27.094,0,54.074-11.96,66.528-18.331  c-5.399,31.407-25.184,62.314-66.528,62.314S178.96,42.7,173.561,11.294C186.014,17.664,212.995,29.624,240.089,29.624z   M173.17,37.692c2.91,6.509,6.458,12.461,10.578,17.675l-16.333,21.161c-7.45-7.989-13.404-16.886-18.153-25.844L173.17,37.692z   M165.127,9.136c1.032,7.369,2.736,14.447,5.062,21.071l-24.48,13.304c-3.947-8.537-6.867-16.916-9.011-24.392  C149.293,14.094,159.594,10.794,165.127,9.136z M31.936,103.106c15.643-39.668,62.595-66.161,97.327-80.924  c6.178,21.196,15.481,39.607,27.295,54.092l-60.996,68.823l-14.418-47.76c-0.638-2.115-2.868-3.31-4.985-2.673  c-2.115,0.639-3.312,2.87-2.673,4.985l16.307,54.017l-1.376,75.878l-29.461-88.321c-0.699-2.096-2.965-3.228-5.06-2.529  c-2.096,0.699-3.228,2.965-2.529,5.061l36.615,109.767L84.76,431.139c-0.054,2.974,0.351,5.882,1.172,8.649H14.434  c-3.525,0-6.403-2.866-6.415-6.389C7.871,388.748,8.327,162.971,31.936,103.106z" />
</svg>