<svg xmlns="http://www.w3.org/2000/svg" width="100" height="100" viewBox="-100 -120 700 680" fill="currentColor">
	<path d="M503.888,381.057l-91.652-378c-0.256-1.056-0.93-1.962-1.868-2.511c-0.938-0.548-2.06-0.69-3.104-0.397
	C356.731,14.382,304.493,21.599,252,21.599c-52.493,0-104.73-7.217-155.263-21.45c-1.046-0.292-2.166-0.15-3.104,0.397
	c-0.938,0.549-1.612,1.455-1.868,2.511l-91.652,378c-0.452,1.862,0.481,3.783,2.224,4.58c14.872,6.798,30.057,12.978,45.486,18.536
	c49.176,19.153,101.775,29.763,156.947,33.957c32.511,2.122,64.205,2.151,95.019-0.074c29.399-2.382,58.687-6.942,87.487-13.597
	c40.217-8.333,78.16-21.685,114.387-38.822C503.406,384.84,504.339,382.919,503.888,381.057z M98.566,8.96
	C148.558,22.657,200.159,29.599,252,29.599S355.442,22.657,405.435,8.96l10.131,41.785C362.234,65.076,307.229,72.36,252,72.36
	S141.767,65.076,88.434,50.746L98.566,8.96z M457.461,395.188l-42.889-211.656c-0.439-2.166-2.552-3.569-4.715-3.126
	c-2.165,0.438-3.564,2.549-3.126,4.714l43.123,212.81c-19.478,6.875-39.341,12.743-59.459,17.571l-33.143-228.169
	c-0.317-2.186-2.343-3.704-4.534-3.383c-2.186,0.317-3.701,2.347-3.383,4.533l33.24,228.839
	c-26.234,5.926-52.868,10.086-79.609,12.427l-7.679-241.968c-0.07-2.208-1.923-3.947-4.125-3.871
	c-2.208,0.07-3.941,1.917-3.871,4.125l7.692,242.359C280.662,431.452,266.32,432,252,432c-14.32,0-28.662-0.547-42.982-1.605
	l7.692-242.359c0.07-2.208-1.663-4.055-3.871-4.125c-2.221-0.071-4.055,1.663-4.125,3.871l-7.679,241.968
	c-26.741-2.341-53.374-6.501-79.609-12.427l33.24-228.839c0.317-2.187-1.197-4.216-3.383-4.533
	c-2.189-0.313-4.216,1.197-4.534,3.383l-33.143,228.168c-20.119-4.828-39.982-10.696-59.459-17.571l43.123-212.81
	c0.438-2.165-0.961-4.275-3.126-4.714c-2.162-0.442-4.276,0.96-4.715,3.126L46.54,395.188c-12.813-4.721-25.452-9.872-37.872-15.464
	L86.549,58.522C140.498,73.001,196.136,80.36,252,80.36s111.502-7.359,165.452-21.838l77.881,321.202
	C482.913,385.316,470.274,390.468,457.461,395.188z" />
</svg>