<svg xmlns="http://www.w3.org/2000/svg" viewBox="0 -60 500 620" width="100" height="100" fill="currentColor">
	<path d="M419.5,230.5c.7.6,1.6.9,2.6.9s1.3-.2,1.9-.5c35.5-19.8,62.2-43.6,79.4-70.8.7-1,.8-2.3.4-3.5-1.1-3-26.7-72.8-57.5-104.6C414.8,19.5,363.7,0,332.5,0h-161.1c-31.2,0-82.2,19.5-113.8,52C26.9,83.8,1.3,153.6.2,156.6c-.4,1.2-.3,2.4.4,3.5,17.1,27.2,43.8,51,79.4,70.8,1.4.8,3.2.6,4.5-.4l34.3-28.4c.8,63.9-5.2,230-7.3,284.8-.2,5,1.8,9.8,5.6,13.1,3.6,3.2,8.5,4.6,13.2,3.8,22.5-3.8,68.2-10.1,121.7-10.1s99.3,6.3,121.7,10.1c.9.1,1.8.2,2.6.2,3.9,0,7.6-1.4,10.6-4,3.7-3.3,5.8-8.1,5.6-13.1-2.1-54.8-8.1-220.9-7.3-284.8l34.3,28.4ZM495.6,157.5c-16,24.8-40.6,46.7-73,65.1l-18.8-15.6c32.3-19.8,59.9-44.3,82.3-72.8,4.8,11,8.2,19.7,9.6,23.3ZM336,8.1c7.1.3,15.2,1.6,23.8,3.9-1.8,6.3-6.3,19.9-15.3,34.4-15.5,24.6-36.6,40.3-62.9,46.9v-22.9c22-6.4,34.9-19.5,42.3-31,8.2-12.6,11.1-25.2,12.1-31.2ZM252,66.3c-29.7,0-51.6-10.4-65-31.1-.4-.6-.7-1.1-1.1-1.7h132.2c-.3.5-.6,1-.9,1.4-13.4,20.8-35.4,31.3-65.2,31.3ZM273.6,72.3v128.6h-43.1V72.3c6.5,1.3,13.6,2,21.6,2,7.9,0,15.1-.7,21.6-2ZM327.9,8c-.8,4-2.3,10.4-5.6,17.5h-140.7c-3.2-7.1-4.8-13.5-5.6-17.5h151.8ZM168,8.1c1,6.1,4,18.6,12.1,31.2,7.4,11.5,20.4,24.6,42.3,31v22.9c-26.3-6.6-47.5-22.4-62.9-46.9-9.1-14.4-13.6-28.1-15.3-34.4,8.6-2.2,16.6-3.5,23.8-3.9ZM81.5,222.6c-32.4-18.4-57-40.3-73-65.1,1.4-3.6,4.7-12.3,9.6-23.3,22.4,28.5,50,53,82.3,72.8l-18.8,15.6ZM384.6,487.2c0,2.6-.9,5.1-2.9,6.8-1.8,1.6-4.2,2.3-6.6,1.9-22.7-3.8-68.9-10.2-123.1-10.2s-100.3,6.4-123.1,10.2c-2.4.4-4.8-.3-6.6-1.9-1.9-1.7-3-4.2-2.9-6.8,2.4-62.4,9.8-268.9,6.5-305.7-3.8-43.2-20.5-76.8-21.3-78.2-1-2-3.4-2.8-5.4-1.8-2,1-2.8,3.4-1.8,5.4.2.3,16.7,33.7,20.4,75.3.2,2.5.4,5.8.5,9.7l-11.7,9.7c-33.7-20.3-62.4-45.8-85.1-75.7,10.4-22.7,25.5-51.5,41.7-68.3,19.9-20.5,47.9-35.6,73-43.5,1.9,6.8,6.6,20.9,16.1,36.2,11.8,18.8,33.3,42.6,69.8,51.2v103.4c0,2.2,1.8,4,4,4h51.1c2.2,0,4-1.8,4-4v-103.4c36.5-8.5,58.1-32.4,69.8-51.2,9.5-15.3,14.2-29.4,16.1-36.2,25.2,7.8,53.1,22.9,73,43.5,16.2,16.8,31.4,45.6,41.7,68.3-22.8,29.9-51.4,55.4-85.1,75.7l-11.7-9.7c.1-4,.3-7.2.5-9.7,3.7-41.6,20.3-75,20.4-75.3,1-2,.2-4.4-1.8-5.4-2-1-4.4-.2-5.4,1.8-.7,1.4-17.4,35-21.3,78.2-3.3,36.8,4.2,243.3,6.5,305.7ZM252,150.3c-7,0-12.7,5.8-12.7,12.9s5.7,12.9,12.7,12.9,12.7-5.8,12.7-12.9c0-7.1-5.7-12.9-12.7-12.9ZM252,168.1c-2.6,0-4.7-2.2-4.7-4.9s2.1-4.9,4.7-4.9,4.7,2.2,4.7,4.9-2.1,4.9-4.7,4.9ZM239.3,110.7c0,7.1,5.7,12.9,12.7,12.9s12.7-5.8,12.7-12.9-5.7-12.9-12.7-12.9-12.7,5.8-12.7,12.9ZM256.7,110.7c0,2.7-2.1,4.9-4.7,4.9s-4.7-2.2-4.7-4.9,2.1-4.9,4.7-4.9,4.7,2.2,4.7,4.9Z" />
</svg>