<?xml version="1.0" encoding="UTF-8"?>
<svg id="Calque_1" data-name="Calque 1" xmlns="http://www.w3.org/2000/svg" viewBox="0 0 506.5 264.71">
  <defs>
    <style>
      .cls-1 {
        fill: #6fa4a2;
        stroke-width: 0px;
      }
    </style>
  </defs>
  <path class="cls-1" d="M161.3,175.21c0,4.9.2,6.6.4,8h-.7c-4.7-8.4-15.3-14.3-29.1-14.3-25.8,0-45,19.7-45,47.9s18.1,47.9,43.9,47.9c13.8,0,24.9-5.9,30.1-15.3h.7c-.2,1.9-.4,4.4-.4,8.4v4.2h22.4v-90.3h-22.3v3.5h0ZM135.8,243.21c-14.1,0-24.4-11-24.4-26.7s10.3-26.3,24.4-26.3,24.6,10.8,24.6,26.3-10.3,26.7-24.6,26.7Z"/>
  <polygon class="cls-1" points="193.3 262.01 217.7 262.01 217.7 193.11 236.9 193.11 236.9 171.71 193.3 171.71 193.3 262.01"/>
  <polygon class="cls-1" points="341.5 240.71 340.8 240.71 328.6 171.71 292.3 171.71 280.1 240.71 279.4 240.71 267.8 171.71 243.9 171.71 263.4 262.01 296.7 262.01 310.1 192.61 310.8 192.61 324.1 262.01 357.7 262.01 377 171.71 353.3 171.71 341.5 240.71"/>
  <rect class="cls-1" x="384.4" y="171.71" width="24.4" height="90.3"/>
  <path class="cls-1" d="M506.5,216.91c0-26.3-17.1-45.1-42.5-45.1-26.9,0-46.2,18.7-46.2,45.1s19.1,45.1,46.5,45.1c14.7,0,26.6-5.1,35.5-16.4l-13.6-13.9c-5.7,7.1-12.1,10-21.8,10-12.1,0-19.9-6.4-22.4-17.6h63.8c.6-2.2.7-5,.7-7.2ZM442.1,209.51c2.3-11,10-17.7,21.4-17.7s18.4,7.1,20.1,17.7h-41.5Z"/>
  <path class="cls-1" d="M32.3,171.11H0v90.9h32.4c28.6,0,47.8-18.3,47.8-45.4s-19.3-45.5-47.9-45.5ZM32.3,243.31h-11.2v-53.6h11.2c16.3,0,26.1,10,26.1,26.7s-9.7,26.9-26.1,26.9Z"/>
  <path class="cls-1" d="M214,79.31c24.8,0,41.9-17.2,41.9-39.4v-.2c0-22.2-17.1-39.2-41.9-39.2h-27.6l14.1,78.8h13.5Z"/>
  <path class="cls-1" d="M221.5,87.21c-10.6,0-19.3,8.6-19.3,19.3s8.6,19.3,19.3,19.3,19.3-8.6,19.3-19.3-8.6-19.3-19.3-19.3Z"/>
  <path class="cls-1" d="M250.6,85.81v.2c0,22.2,17.1,39.2,41.9,39.2h27.6l-14.1-78.8h-13.5c-24.8,0-41.9,17.2-41.9,39.4Z"/>
  <path class="cls-1" d="M263.8,27.01c5.3,4.3,11.4,6.2,18.8,6.4,1.5-.2,3.7-.4,5.8-.8,1.6-.3,3.3-.9,4.8-1.6,3.2-1.5,6.4-3.1,8.1-6.4,3-5.6.7-14-5.1-17.9-5.1-3.4-10.8-5.3-16.7-6.4-2.6-.5-5.6-.4-8.2.4-6.6,2-9.8,7.3-11.5,13.6-1.3,5-.1,9.3,4,12.7Z"/>
</svg>