<svg  fill="#ccdfe2" xmlns="http://www.w3.org/2000/svg" xmlns:xlink="http://www.w3.org/1999/xlink" version="1.1" x="0px" y="0px" viewBox="0 0 53 66.25" style="enable-background:new 0 0 53 53;" xml:space="preserve" ><g><path d="M18.9589539,23.8567963c1.7412109,1.3066406,2.8349609,2.5830078,3.421875,3.9873047   c0.5019531,1.2001953,1.1357422,2.0478516,1.9365234,2.5927734c3.3725586,2.2938843,6.7871094,1.0181274,7.9818115,0.4382935   c-0.6605225-1.2695923-1.5650635-2.300415-2.5551758-3.1294556l-1.1922607,0.651123   c-0.0761719,0.0419922-0.1582031,0.0615234-0.2392578,0.0615234c-0.1767578,0-0.3476563-0.09375-0.4384766-0.2607422   c-0.1328125-0.2421875-0.0439453-0.5458984,0.1992188-0.6777344l0.8059082-0.4400635   c-2.6164551-1.8388672-5.4155273-2.4403687-5.467041-2.4505615c-0.2705078-0.0546875-0.4453125-0.3183594-0.390625-0.5898438   c0.0546875-0.2705078,0.3173828-0.4433594,0.5898438-0.390625c0.03479,0.0071411,1.269165,0.2702026,2.8886719,0.9743652   l-0.1103516-0.7819824c-0.0390625-0.2734375,0.1513672-0.5263672,0.4248047-0.5654297   c0.2734375-0.0371094,0.5263672,0.1513672,0.5654297,0.4248047l0.2028809,1.437561   c1.7519531,0.9039917,3.7138672,2.2930908,5.0761719,4.3568115c0.0444336-5.2513428-5.1400146-7.3092041-5.3796387-7.4017944   C22.9902039,20.6771088,19.9804382,22.91539,18.9589539,23.8567963z"/><path d="M49.240448,28.6459808L24.3539734,3.7595053c-0.5571289-0.5570679-1.3217773-0.8555908-2.1088867-0.8233643   L6.2909851,3.5894613C4.8245544,3.6495199,3.6495054,4.8245687,3.5894468,6.2909994L2.9361265,22.2451019   c-0.0323486,0.7871094,0.2662354,1.5518188,0.8233643,2.1088867l24.8864746,24.8864746   c1.1010742,1.1010132,2.8859863,1.1010132,3.9870605,0L49.240448,32.6329803   C50.3415222,31.5320282,50.3415222,29.746994,49.240448,28.6459808z M9.0282898,9.0286703   c1.1689453-1.1689453,3.0722656-1.1708984,4.2431641,0c1.1689453,1.1699219,1.1689453,3.0732422,0,4.2421875   c-0.5849609,0.5849609-1.3535156,0.8769531-2.1220703,0.8769531c-0.7675781,0-1.5361328-0.2919922-2.1210938-0.8769531   C7.8593445,12.1019125,7.8593445,10.1985922,9.0282898,9.0286703z M45.9306335,30.9925385l-14.9375,14.9384766   c-0.09375,0.09375-0.2207031,0.1464844-0.3535156,0.1464844s-0.2597656-0.0527344-0.3535156-0.1464844L9.2499695,24.8939056   c-0.1953125-0.1953125-0.1953125-0.5117188,0-0.7070313l14.9375-14.937501c0.1953125-0.1953125,0.5117188-0.1953125,0.7070313,0   l21.0361328,21.0361328C46.125946,30.4808197,46.125946,30.797226,45.9306335,30.9925385z"/><path d="M12.5644226,9.7357016c-0.3896484-0.3896484-0.9023438-0.5849609-1.4140625-0.5849609   c-0.5126953,0-1.0253906,0.1953125-1.4150391,0.5849609c-0.7792969,0.7802734-0.7792969,2.0488281,0,2.828125   c0.7783203,0.7783203,2.0488281,0.7792969,2.8291016,0C13.3437195,11.7845297,13.3437195,10.515975,12.5644226,9.7357016z"/><path d="M10.3105164,24.54039l20.3291016,20.3300781l14.2304688-14.2314453L24.5409851,10.3099203L10.3105164,24.54039z    M33.5143738,31.0831146c0.4213867,0.9801025,0.7137451,2.0765991,0.8117676,3.310791   c0.0224609,0.2753906-0.1835938,0.5166016-0.4580078,0.5380859c-0.0136719,0.0009766-0.0273438,0.0019531-0.0410156,0.0019531   c-0.2578125,0-0.4765625-0.1982422-0.4970703-0.4599609c-0.0788574-0.9909668-0.2941895-1.8872681-0.6092529-2.6986084   c-0.7803955,0.3735352-2.3165283,0.9733276-4.1983643,0.973999c-1.4609375,0-3.1191406-0.3652344-4.7675781-1.4863281   c-0.9658203-0.65625-1.7167969-1.6484375-2.2958984-3.0322266c-0.5644531-1.3476563-1.6933594-2.5888672-3.5537109-3.9042969   c-0.1142578-0.0810547-0.1894531-0.2060547-0.2070313-0.3447266c-0.0175781-0.1396484,0.0234375-0.2792969,0.1142578-0.3867188   c0.0371094-0.0449219,3.8193359-4.4238281,9.8017578-2.4433594C27.70578,21.1857758,34.7590027,23.9578094,33.5143738,31.0831146z"/></g></svg>