<svg xmlns="http://www.w3.org/2000/svg" version="1.1" viewBox="-5.0 -10.0 110.0 135.0" fill="#ccdfe2">
 <path d="m95.09 70.93h-90.18c-0.80469 0-1.4531-0.65234-1.4531-1.4531l-0.003906-62.965c0-0.80469 0.65234-1.4531 1.4531-1.4531h90.184c0.80469 0 1.4531 0.65234 1.4531 1.4531v62.969c0.003906 0.80078-0.64844 1.4492-1.4531 1.4492zm-88.727-2.9062h87.273v-60.059h-87.273z"/>
 <path d="m71.078 94.945h-42.156c-0.4375 0-0.85547-0.19922-1.1289-0.53906-0.27734-0.33984-0.38281-0.78906-0.29297-1.2188l2.668-12.539c0.14453-0.67188 0.73438-1.1523 1.4219-1.1523h36.82c0.6875 0 1.2812 0.48047 1.4219 1.1523l2.668 12.539c0.089844 0.42969-0.015625 0.875-0.29297 1.2188-0.27344 0.33984-0.69141 0.53906-1.1289 0.53906zm-40.359-2.9102h38.562l-2.0508-9.6328-34.461 0.003906z"/>
 <path d="m39.32 82.406c-0.17187 0-0.34375-0.03125-0.51172-0.09375-0.75-0.28516-1.1328-1.1211-0.84766-1.875l4.332-11.473c0.28516-0.75 1.1211-1.1328 1.875-0.84766 0.75 0.28516 1.1328 1.1211 0.84766 1.875l-4.332 11.473c-0.22266 0.58203-0.77734 0.94141-1.3633 0.94141z"/>
 <path d="m60.68 82.406c-0.58594 0-1.1406-0.35938-1.3594-0.94141l-4.332-11.473c-0.28516-0.75 0.09375-1.5898 0.84766-1.875 0.75-0.28516 1.5898 0.09375 1.875 0.84766l4.332 11.473c0.28516 0.75-0.09375 1.5898-0.84766 1.875-0.17187 0.0625-0.34375 0.09375-0.51562 0.09375z"/>
 <path d="m43.48 63h-32.164c-0.80469 0-1.4531-0.65234-1.4531-1.4531v-32.164c0-0.80469 0.65234-1.4531 1.4531-1.4531 0.80469 0 1.4531 0.65234 1.4531 1.4531v30.711h30.711c0.80469 0 1.4531 0.65234 1.4531 1.4531 0.003906 0.80469-0.64844 1.4531-1.4531 1.4531z"/>
 <path d="m17.977 63c-0.80469 0-1.4531-0.65234-1.4531-1.4531v-15.988c0-0.80469 0.65234-1.4531 1.4531-1.4531 0.80469 0 1.4531 0.65234 1.4531 1.4531v15.988c0.003906 0.80469-0.64844 1.4531-1.4531 1.4531z"/>
 <path d="m24.641 63c-0.80469 0-1.4531-0.65234-1.4531-1.4531v-13.703c0-0.80469 0.65234-1.4531 1.4531-1.4531 0.80469 0 1.4531 0.65234 1.4531 1.4531v13.703c0 0.80469-0.65234 1.4531-1.4531 1.4531z"/>
 <path d="m31.301 63c-0.80469 0-1.4531-0.65234-1.4531-1.4531v-18.461c0-0.80469 0.65234-1.4531 1.4531-1.4531 0.80469 0 1.4531 0.65234 1.4531 1.4531v18.461c0 0.80469-0.64844 1.4531-1.4531 1.4531z"/>
 <path d="m37.961 63c-0.80469 0-1.4531-0.65234-1.4531-1.4531v-10.848c0-0.80469 0.65234-1.4531 1.4531-1.4531 0.80469 0 1.4531 0.65234 1.4531 1.4531v10.848c0.003907 0.80469-0.64844 1.4531-1.4531 1.4531z"/>
 <path d="m37.961 41.305c-0.28516 0-0.57031-0.082032-0.82031-0.25391l-5.8398-4.0039-5.8398 4.0039c-0.44141 0.30078-1.0117 0.33984-1.4883 0.09375l-6.6602-3.4258c-0.71484-0.36719-0.99609-1.2461-0.62891-1.957 0.36719-0.71484 1.2461-0.99609 1.957-0.62891l5.8906 3.0273 5.9453-4.0781c0.49609-0.33984 1.1484-0.33984 1.6445 0l6.6602 4.5664c0.66406 0.45312 0.83203 1.3594 0.375 2.0234-0.27734 0.41016-0.73047 0.63281-1.1953 0.63281z"/>
 <path d="m55.332 58.195h-0.003906c-0.38672 0-0.75781-0.15625-1.0312-0.43359-3.2461-3.2969-5.0352-7.6641-5.0352-12.297 0-9.6172 7.8203-17.48 17.434-17.535h0.007813c0.38281 0 0.75391 0.15234 1.0273 0.42187 0.27344 0.27344 0.42969 0.64453 0.42969 1.0312v15.984c0 0.38672-0.15234 0.75391-0.42578 1.0273l-11.371 11.371c-0.27734 0.27344-0.64453 0.42969-1.0312 0.42969zm9.9141-27.277c-7.332 0.77734-13.078 7.0195-13.078 14.547 0 3.3711 1.1328 6.5703 3.2227 9.1602l9.8555-9.8555z"/>
 <path d="m88.684 41.02h-16.176c-0.80469 0-1.4531-0.65234-1.4531-1.4531v-15.984c0-0.76953 0.60156-1.4062 1.3711-1.4531 0.0625-0.003906 0.11719-0.003906 0.17969-0.003906 9.6172 0 17.48 7.8203 17.535 17.434 0.003906 0.38672-0.14844 0.75781-0.42188 1.0352-0.27734 0.26953-0.64844 0.42578-1.0352 0.42578zm-14.723-2.9102h13.188c-0.73047-6.8867-6.2773-12.375-13.188-13.016z"/>
 <path d="m66.797 63c-4.7383 0-9.1797-1.8633-12.504-5.2422-0.55859-0.57031-0.55469-1.4844 0.007812-2.0469l11.371-11.371c0.27344-0.27344 0.64453-0.42578 1.0273-0.42578h16.176c0.76953 0 1.4062 0.59766 1.4531 1.3672 0.003906 0.0625 0.003906 0.12109 0.003906 0.18359 0.003907 9.668-7.8633 17.535-17.535 17.535zm-9.3672-6.3008c2.6211 2.1992 5.8984 3.3945 9.3672 3.3945 7.6094 0 13.879-5.8359 14.566-13.27h-14.059z"/>
 <path d="m45.73 16.91h-40.82c-0.80469 0-1.4531-0.65234-1.4531-1.4531 0-0.80469 0.65234-1.4531 1.4531-1.4531h40.82c0.80469 0 1.4531 0.65234 1.4531 1.4531s-0.64844 1.4531-1.4531 1.4531z"/>
 <path d="m16.801 12.344h-3.4258c-0.80469 0-1.4531-0.65234-1.4531-1.4531 0-0.80469 0.65234-1.4531 1.4531-1.4531h3.4258c0.80469 0 1.4531 0.65234 1.4531 1.4531s-0.64844 1.4531-1.4531 1.4531z"/>
 <path d="m26.316 12.344h-3.4258c-0.80469 0-1.4531-0.65234-1.4531-1.4531 0-0.80469 0.65234-1.4531 1.4531-1.4531h3.4258c0.80469 0 1.4531 0.65234 1.4531 1.4531 0.003907 0.80078-0.64844 1.4531-1.4531 1.4531z"/>
 <path d="m35.832 12.344h-3.4258c-0.80469 0-1.4531-0.65234-1.4531-1.4531 0-0.80469 0.65234-1.4531 1.4531-1.4531h3.4258c0.80469 0 1.4531 0.65234 1.4531 1.4531 0.003906 0.80078-0.64844 1.4531-1.4531 1.4531z"/>
</svg>