<svg xmlns="http://www.w3.org/2000/svg" version="1.1" viewBox="-5.0 -10.0 110.0 135.0" fill="#ccdfe2">
 <path d="m21.25 74.156c-0.55469 0-1.0039-0.44922-1.0039-1.0039 0-0.55469 0.44922-1.0039 1.0039-1.0039h29.715c0.55469 0 1.0039 0.44922 1.0039 1.0039 0 0.55469-0.44922 1.0039-1.0039 1.0039zm0-5.0898v-0.003906c-0.55469 0-1.0039-0.44922-1.0039-1.0039 0-0.55469 0.44922-1.0039 1.0039-1.0039h31.379c0.55469 0 1.0039 0.44922 1.0039 1.0039 0 0.55469-0.44922 1.0039-1.0039 1.0039zm53.523-47.363-10.285-10.281v10.281zm-3.5859 65.297h-55.473c-0.55469 0-1-0.44922-1-1v-71h-3v75h59.473zm-9.3867-25.711 1.1016 0.63281h-0.003906c0.36719 0.21484 0.83203 0.17188 1.1523-0.10547l0.94141-0.79297-0.21875 1.2188c-0.078126 0.44141 0.14844 0.88281 0.55078 1.082l1.0391 0.60156-5.9258 5 1.3633-7.6289zm17.609-31.359 5.3008 3.0625-16.973 29.406-0.85938-0.5 0.23047-1.2852 0.35156-1.9766v0.003906c0.074218-0.41406-0.12109-0.83594-0.48438-1.0469-0.36719-0.21094-0.82812-0.16797-1.1523 0.10547l-1.5352 1.3008-1 0.83984-0.85937-0.5zm8.5625-4.8711-3.3242-1.918c-0.28516-0.09375-0.59766-0.042969-0.84375 0.13281-0.55469 0.32031-1.0117 0.78516-1.3281 1.3438-0.007812 0.015624-0.019531 0.035156-0.027343 0.050781l-2.0352 3.5273 5.3008 3.0625 2.0078-3.4727c0.007813-0.019531 0.019532-0.035156 0.03125-0.054687l-0.003906-0.003907c0.34375-0.5625 0.52734-1.2109 0.52734-1.8711 0.035156-0.30078-0.082032-0.59766-0.30859-0.80078zm-11.785 26.699-7.2227 12.512c-0.054688 0.097657-0.13281 0.1875-0.21875 0.26172l-9.1406 7.6992v0.003906c-0.20312 0.17188-0.46484 0.25391-0.73047 0.23438-0.26562-0.023438-0.50781-0.15234-0.67969-0.35547-0.15625-0.17969-0.23828-0.40625-0.23828-0.64453 0-0.066406 0.007813-0.13672 0.019531-0.19922l2.1016-11.746v-0.003907c0.023437-0.13672 0.078125-0.26953 0.15625-0.38672l15.957-27.633v-7.7891h-12.707c-0.55469 0-1-0.44922-1-1v-12.711h-45.766v75h59.473v-33.242zm-16.609-11.664c-0.55469 0-1.0039-0.45312-1.0039-1.0039 0-0.55469 0.44922-1.0039 1.0039-1.0039h3.8984c0.55469 0 1.0039 0.44922 1.0039 1.0039 0 0.55078-0.44922 1.0039-1.0039 1.0039zm-4.4219-12.688c-0.39453 0.39453-1.0273 0.39453-1.4219 0-0.39062-0.39062-0.39062-1.0273 0-1.418l2.7656-2.7617c0.39062-0.39453 1.0273-0.39453 1.418 0 0.39453 0.39063 0.39453 1.0273 0.003906 1.418l-2.7617 2.7617zm-30.625 10.68c0.55469 0 1.0039 0.44922 1.0039 1.0039 0 0.55078-0.44922 1.0039-1.0039 1.0039h-3.8984c-0.55469 0-1.0039-0.45312-1.0039-1.0039 0-0.55469 0.44922-1.0039 1.0039-1.0039zm5.8438-12.102h-0.003906c0.39453 0.39062 0.39453 1.0273 0 1.418-0.39062 0.39453-1.0273 0.39453-1.418 0l-2.7617-2.7617c-0.39062-0.39062-0.39062-1.0273 0-1.418 0.39453-0.39062 1.0273-0.39062 1.4219 0zm12.684-4.4219c0 0.55469-0.44922 1.0039-1.0039 1.0039-0.55469 0-1.0039-0.44922-1.0039-1.0039v-3.9023c0-0.55469 0.44922-1.0039 1.0039-1.0039 0.55469 0 1.0039 0.44922 1.0039 1.0039v3.9062zm0.22656 40.723c-0.042968 0.046875-0.09375 0.085938-0.14062 0.125-0.64062 0.49609-1.5352 0.5-2.1797 0.011719-0.054688-0.042969-0.10547-0.085937-0.15625-0.13672zm5.1836-7.7266v0.92969c0 0.51172-0.41406 0.92578-0.92578 0.92578h-10.977c-0.51172 0-0.92578-0.41406-0.92969-0.92578v-0.92578zm-2.793 3.8633v0.92578l0.003907 0.003906c0.007812 0.27344-0.070313 0.53906-0.22266 0.76563-0.074219 0.10156-0.14844 0.16016-0.21094 0.16016h-6.3828c-0.0625 0-0.13672-0.0625-0.21094-0.16016-0.15234-0.22266-0.23047-0.49219-0.22266-0.76563v-0.92578zm0.82812-5.8711h-3.4492v-10.141c2.2578-0.22266 4.375-1.207 6-2.7891 0.39844-0.38672 0.40625-1.0195 0.019531-1.418-0.38672-0.39453-1.0234-0.40234-1.418-0.015625-3.125 3.0195-8.0781 3.0195-11.203 0-0.39453-0.38672-1.0273-0.37891-1.4141 0.015625-0.38672 0.39844-0.37891 1.0312 0.015626 1.418 1.6289 1.582 3.7422 2.5664 6 2.7891v10.145h-3.4531c-1.0117-2.0781-2.2656-4.0312-3.7383-5.8125-0.69141-0.91406-1.3555-1.7891-1.8359-2.5195l-0.003906-0.003906c-2.4102-3.6836-2.6094-8.3906-0.51563-12.266 2.0898-3.875 6.1406-6.2891 10.543-6.2891 4.4023 0 8.4531 2.4141 10.547 6.2891 2.0898 3.875 1.8906 8.582-0.51953 12.266-0.48047 0.73438-1.1445 1.6055-1.8359 2.5195l-0.003907 0.003907c-1.4727 1.7812-2.7266 3.7344-3.7344 5.8125zm-11.113 0 0.003906 0.003907c-0.91797-1.6211-1.9648-3.1602-3.1289-4.6094-0.6875-0.90625-1.3438-1.7734-1.9062-2.6328l-0.003906 0.003906c-2.8281-4.3008-3.0664-9.8086-0.625-14.34 2.4453-4.5312 7.1758-7.3555 12.324-7.3555 5.1484 0 9.8789 2.8242 12.32 7.3555 2.4453 4.5312 2.2031 10.039-0.625 14.34-0.5625 0.85938-1.2227 1.7266-1.9062 2.6328v-0.003907c-1.1641 1.4492-2.2109 2.9883-3.1289 4.6094h0.76172c0.26172 0 0.51953 0.10547 0.70703 0.29297s0.29297 0.44141 0.29297 0.70703v1.9297c-0.003906 1.5625-1.2305 2.8516-2.793 2.9297v0.93359c0.003906 0.70312-0.21094 1.3867-0.62109 1.9609-0.34375 0.48438-0.86328 0.82422-1.4492 0.94141-0.52734 1.5195-1.9609 2.5391-3.5703 2.5391s-3.043-1.0195-3.5703-2.5391c-0.57812-0.12109-1.0898-0.45703-1.4336-0.94141-0.41016-0.57031-0.62891-1.2578-0.62109-1.9609v-0.92969c-1.5625-0.078125-2.7891-1.3672-2.793-2.9336v-1.9258c0-0.55078 0.44922-1 1-1zm-14.141 26.695c-0.55469 0-1.0039-0.44922-1.0039-1.0039 0-0.55469 0.44922-1.0039 1.0039-1.0039h47.801c0.55469 0 1.0039 0.44922 1.0039 1.0039 0 0.55469-0.44922 1.0039-1.0039 1.0039z" fill-rule="evenodd"/>
</svg>