<svg xmlns="http://www.w3.org/2000/svg" xmlns:xlink="http://www.w3.org/1999/xlink" version="1.1" 
  width="100%" height="100%" viewBox="0 0 24 24" xml:space="preserve" fill="#ccdfe2">
  <path d="M8.4,16.6c0.2,0.7,0.5,1.4,0.9,2.1l-1.1,1.1c-0.5,0.5-0.5,0.8-0.1,1.2l1.1,1.1c0.4,0.4,0.8,0.4,1.2-0.1l1.2-1.2   c0.6,0.3,1.2,0.6,1.8,0.7v1.4c0,0.7,0.2,0.9,0.8,0.9h1.6c0.6,0,0.8-0.2,0.8-0.9v-1.4c0.6-0.2,1.2-0.4,1.8-0.7l1.2,1.2   c0.5,0.5,0.8,0.5,1.2,0.1l1.1-1.1c0.4-0.4,0.4-0.7-0.1-1.2l-1.2-1.2c0.4-0.6,0.7-1.3,0.9-2.1h1.5c0.6,0,0.8-0.2,0.8-0.9v-1.4   c0-0.7-0.2-0.9-0.8-0.9h-1.5c-0.2-0.6-0.4-1.2-0.7-1.8l1.1-1.1c0.5-0.5,0.5-0.8,0.1-1.2L21,8.2c-0.4-0.4-0.8-0.4-1.2,0.1l-1,1   c-0.6-0.4-1.3-0.7-2.1-0.9V6.9c0-0.7-0.2-0.9-0.8-0.9h-1.6c-0.6,0-0.8,0.2-0.8,0.9v1.4c-0.7,0.2-1.4,0.5-2.1,0.9l-1-1   C9.8,7.7,9.5,7.7,9,8.2L7.9,9.3C7.5,9.7,7.5,10,8,10.5l1.1,1.1c-0.3,0.6-0.6,1.2-0.7,1.8H6.8c-0.6,0-0.8,0.2-0.8,0.9v1.4   c0,0.7,0.2,0.9,0.8,0.9H8.4z M12.4,15c0-1.5,1.2-2.6,2.6-2.6c1.5,0,2.6,1.2,2.6,2.6s-1.2,2.6-2.6,2.6C13.5,17.6,12.4,16.5,12.4,15z"/></svg>