<svg xmlns="http://www.w3.org/2000/svg" viewBox="0 0 100 125" x="0px" y="0px" fill="#ccdfe2"><path d="M37.38,2.51c.23-.02,.51,0,.58,.03,.78,2.64,5.71,4.48,12.03,4.48s11.23-1.83,12.03-4.47c.1-.05,.37-.07,.62-.05,.06,0,.15,0,.25,.01-.32,1.95-3.64,5.41-12.9,5.41-9.97,0-12.57-3.88-12.89-5.41,.12,0,.21-.01,.28-.02ZM17.14,39.17c-6.84-5.44-14.14-11.63-14.37-12.51,.04-1.49,13.59-17.41,17.12-20.2,4.6,11.23,2.6,26.59,2.4,28.01l-5.15,4.7Zm61.31,53.84c.01,.13-.05,.26-.19,.41-2.09,2.3-16.91,4.08-28.26,4.08s-26.17-1.78-28.26-4.08c-.14-.15-.2-.28-.19-.4,3-24.52,1.45-57.26,1.4-58.37,.11-.75,2.36-16.88-2.49-28.58,2.75-1.51,12.69-3.11,15.97-3.48,.37,2.18,3.87,6.01,13.57,6.01s13.22-3.54,13.57-6.02c3.23,.37,13.21,1.97,15.97,3.48-4.86,11.72-2.59,27.88-2.49,28.58-.06,1.18-1.6,33.88,1.4,58.35Zm4.41-53.84l-5.15-4.7c-.2-1.43-2.19-16.78,2.4-28.01,3.53,2.79,17.08,18.7,17.12,20.18-.24,.91-7.54,7.1-14.37,12.54Z"/></svg>