
<svg xmlns="http://www.w3.org/2000/svg" viewBox="0 0 595.3 595.3" fill="currentColor">
	<path d="M174.3,430.4c-19.1,0-37.5,7.6-51,21.1-13.5,13.5-21.1,31.9-21.1,51s7.6,37.5,21.1,51c13.5,13.5,31.9,21.1,51,21.1s37.5-7.6,51-21.1c13.5-13.5,21.1-31.9,21.1-51,0-19.1-7.6-37.5-21.1-51-13.5-13.5-31.9-21.1-51-21.1h0ZM174.3,569.2c-17.7,0-34.6-7-47.2-19.5s-19.5-29.5-19.5-47.2,7-34.6,19.5-47.2c12.5-12.5,29.5-19.5,47.2-19.5s34.6,7,47.2,19.5c12.5,12.5,19.5,29.5,19.5,47.2,0,17.7-7,34.6-19.6,47.1-12.5,12.5-29.5,19.5-47.1,19.6h0ZM174.3,444.7c-15.3,0-30,6.1-40.9,16.9-10.8,10.9-16.9,25.6-16.9,40.9s6.1,30,16.9,40.9c10.9,10.8,25.6,16.9,40.9,16.9s30-6.1,40.9-16.9c10.8-10.9,16.9-25.6,16.9-40.9,0-15.3-6.1-30-17-40.9s-25.5-16.9-40.9-17h0ZM174.3,554.9c-13.9,0-27.2-5.5-37.1-15.3-9.8-9.8-15.3-23.2-15.3-37.1s5.5-27.2,15.3-37.1c9.8-9.8,23.2-15.3,37.1-15.3s27.2,5.5,37.1,15.3c9.8,9.8,15.3,23.2,15.3,37.1,0,13.9-5.6,27.2-15.4,37-9.8,9.8-23.1,15.4-37,15.4h0ZM163.5,481.2c-4.4,0-8.4,2.6-10.1,6.7-1.7,4.1-.8,8.8,2.4,11.9,3.1,3.1,7.8,4,11.9,2.4,4.1-1.7,6.7-5.7,6.7-10.1s-1.1-5.7-3.2-7.7c-2-2-4.8-3.2-7.7-3.2h0ZM163.5,497.5c-2.2,0-4.2-1.3-5-3.4-.8-2-.4-4.4,1.2-5.9,1.6-1.6,3.9-2,5.9-1.2,2,.9,3.4,2.8,3.4,5s-.6,2.8-1.6,3.8-2.4,1.6-3.8,1.6h0ZM163.5,505c-4.4,0-8.4,2.6-10.1,6.7-1.7,4.1-.8,8.8,2.4,11.9,3.1,3.1,7.8,4,11.9,2.4,4.1-1.7,6.7-5.7,6.7-10.1s-1.1-5.7-3.2-7.7-4.8-3.2-7.7-3.2h0ZM163.5,521.3c-2.2,0-4.2-1.3-5-3.4-.8-2-.4-4.4,1.2-5.9,1.6-1.6,3.9-2,5.9-1.2,2,.9,3.4,2.8,3.4,5s-.6,2.8-1.6,3.8-2.4,1.6-3.8,1.6h0ZM187.6,481.2c-4.4,0-8.4,2.6-10.1,6.7-1.7,4.1-.8,8.8,2.4,11.9,3.1,3.1,7.8,4,11.9,2.4,4.1-1.7,6.7-5.7,6.7-10.1s-1.2-5.7-3.2-7.7c-2.1-2.1-4.9-3.2-7.8-3.1h.1ZM187.6,497.5c-2.2,0-4.2-1.3-5-3.4-.8-2-.4-4.4,1.2-5.9,1.6-1.6,3.9-2,5.9-1.2,2,.9,3.4,2.8,3.4,5s-.6,2.9-1.6,3.9c-1.1,1-2.5,1.6-3.9,1.6h.1ZM187.6,505c-4.4,0-8.4,2.6-10.1,6.7-1.7,4.1-.8,8.8,2.4,11.9,3.1,3.1,7.8,4,11.9,2.4,4.1-1.7,6.7-5.7,6.7-10.1s-1.2-5.7-3.2-7.7c-2.1-2.1-4.9-3.2-7.8-3.1h.1ZM187.6,521.3c-2.2,0-4.2-1.3-5-3.4-.8-2-.4-4.4,1.2-5.9,1.6-1.6,3.9-2,5.9-1.2,2,.9,3.4,2.8,3.4,5s-.6,2.9-1.6,3.9c-1.1,1-2.5,1.6-3.9,1.6h.1Z"/>
	<path d="M321.7,479l.6,3.4.4,2.4-13.4,1.8.7,3.7.8,4.7.7,3.7,13.2-2.8.3,2,.8,4.7.4,2.4-13.4,1.8.7,3.7.8,4.7.7,3.7,13.2-2.8.3,2,.8,4.7.4,2.4-13.4,1.8.7,3.7.8,4.7.7,3.7,13.2-2.8.3,2,.8,4.7.4,2.4-13.4,1.8.7,3.7.8,4.7.7,3.7,13.2-2.8.3,2,.8,4.7.4,2.4-13.4,1.8.7,3.7.8,4.7.7,3.7,24.7-5.3-.5-2.8-.8-4.7-.4-2.4,13.4-1.8-.7-3.7-.8-4.7-.7-3.7-13.2,2.8-.3-2-.8-4.7-.4-2.4,13.4-1.8-.7-3.7-.8-4.7-.7-3.7-13.2,2.8-.3-2-.8-4.7-.4-2.4,13.4-1.8-.7-3.7-.8-4.7-.7-3.7-13.2,2.8-.3-2-.8-4.7-.4-2.4,13.4-1.8-.7-3.7-.8-4.7-.7-3.7-13.2,2.8-.3-2-.8-4.7-.4-2.4,13.4-1.8-.7-3.7-.6-3.5c-.3,0-.5.2-.8.2l-24,4.2h0Z"/>
	<polygon points="396.6 38.4 397.1 41.1 398 45.8 398.4 48.6 423.4 45.1 422.8 41.4 421.9 36.8 421.3 33.1 396.6 38.4"/>
	<polygon points="381.6 64.6 382.4 69.2 382.9 72 407.8 68.6 407.2 64.9 406.4 60.2 405.7 56.5 381.1 61.8 381.6 64.6"/>
	<polygon points="367.7 87.7 368.6 92.4 369 95.2 394 91.7 393.4 88 392.6 83.3 391.9 79.6 367.2 85 367.7 87.7"/>
	<polygon points="355 110.7 355.8 115.3 356.3 118.1 381.3 114.7 380.6 111 379.8 106.3 379.1 102.6 354.5 107.9 355 110.7"/>
	<polygon points="343.9 133.3 344.7 138 345.2 140.8 370.2 137.3 369.5 133.6 368.7 129 368 125.3 343.4 130.6 343.9 133.3"/>
	<polygon points="334 155.8 334.8 160.4 335.3 163.2 360.3 159.8 359.6 156.1 358.8 151.4 358.2 147.7 333.5 153 334 155.8"/>
	<polygon points="325.3 178 326.1 182.7 326.6 185.5 351.6 182 350.9 178.3 350.1 173.7 349.4 170 324.8 175.3 325.3 178"/>
	<polygon points="318 200 318.8 204.7 319.3 207.4 344.3 204 343.6 200.3 342.8 195.6 342.2 191.9 317.5 197.2 318 200"/>
	<polygon points="311.9 221.8 312.7 226.5 313.2 229.2 338.2 225.8 337.5 222.1 336.7 217.4 336.1 213.7 311.4 219 311.9 221.8"/>
	<polygon points="307.5 243.3 308.3 247.9 308.8 250.7 333.8 247.3 333.1 243.6 332.3 238.9 331.7 235.2 307 240.5 307.5 243.3"/>
	<polygon points="329.7 264.9 328.9 260.2 328.3 256.5 303.6 261.8 304.1 264.6 304.9 269.2 305.4 272 330.4 268.6 329.7 264.9"/>
	<polygon points="123.9 104.5 123 99.9 122.6 97.1 97.6 100.5 98.2 104.2 99 108.9 99.7 112.6 124.3 107.3 123.9 104.5"/>
	<polygon points="146.5 121.2 145.7 116.6 145.2 113.8 120.2 117.3 120.9 120.9 121.7 125.6 122.4 129.3 147 124 146.5 121.2"/>
	<polygon points="167.4 138.3 166.6 133.6 166.1 130.8 141.1 134.3 141.8 138 142.6 142.6 143.2 146.3 167.9 141 167.4 138.3"/>
	<polygon points="187.3 155.5 186.4 150.8 185.9 148 161 151.5 161.6 155.2 162.4 159.8 163.1 163.5 187.7 158.2 187.3 155.5"/>
	<polygon points="205.4 173 204.6 168.3 204.1 165.5 179.2 169 179.8 172.7 180.6 177.3 181.3 181 205.9 175.7 205.4 173"/>
	<polygon points="222.4 190.7 221.6 186 221.1 183.2 196.1 186.7 196.8 190.4 197.6 195 198.3 198.7 222.9 193.4 222.4 190.7"/>
	<polygon points="238.2 208.6 237.4 203.9 236.9 201.2 211.9 204.6 212.6 208.3 213.4 213 214.1 216.7 238.7 211.4 238.2 208.6"/>
	<polygon points="252.6 226.8 251.7 222.1 251.3 219.3 226.3 222.8 226.9 226.5 227.7 231.1 228.4 234.8 253.1 229.5 252.6 226.8"/>
	<polygon points="265.8 245.1 264.9 240.5 264.4 237.7 239.5 241.2 240.1 244.9 240.9 249.5 241.6 253.2 266.2 247.9 265.8 245.1"/>
	<polygon points="251.6 263.5 252.4 268.2 253.1 271.9 277.7 266.6 277.2 263.8 276.4 259.2 275.9 256.4 250.9 259.8 251.6 263.5"/>
	<path d="M342.5,315.2c-1.8-10.4-7.3-19.2-14.8-25.5h.6c0,0-.7-3.8-.7-3.8l-.8-4.7-.7-3.7-15.5,3.3c-7-1.8-14.7-1.9-22.3.3-.3,0-.6.2-.9.3l-.6-3.5-.5-2.8-25,3.4.7,3.7.8,4.7.7,3.7,10.4-2.2c-10.2,7.8-16.8,20-17.1,33.3,0,4.6.5,9,1.8,13.1,3.4,11.5,5.5,23.4,6.2,35.4.3,4.3,1.2,8.6,2.8,13,4,10.4,11.9,18.5,21.6,23.1l-2.9-46.1c-.4-6.9,4.4-13,11.2-14.2l12.6-2.2c6.8-1.2,13.5,2.9,15.4,9.5l13.1,44.5c9.4-9.6,14.2-23.4,11.7-37.7-.4-2.1-.9-4.1-1.5-6-3.5-10.6-5.5-21.7-5.8-32.8,0-2-.3-4.1-.6-6.2ZM316.6,310.2c.1.6,0,1.1.1,1.7.6,8.7-5.3,16.6-14,18.1l-2.6.5c-4.6.8-9.2-.3-12.8-2.8-3.5-2.5-6.1-6.3-7-10.8,0,0,0-.1,0-.2l-1.2-6.7c0-.5,0-.9-.1-1.4-.4-4.6,1-9,3.8-12.4,2.5-3,6-5.3,10.2-6l2.6-.5c2.5-.4,4.9-.3,7.2.3,2,.5,3.8,1.3,5.5,2.5,2.9,2,5.1,4.9,6.4,8.4.3.9.6,1.8.8,2.7,0,0,1.2,6.7,1.2,6.7Z"/>
	<path d="M296.5,295.1h-.8c0,.1-1.8.5-1.8.5-5.8,1-9.7,6.1-9.5,11.8,0,.5,0,1.1.1,1.6l1.2,6.7c0,.1,0,.3.1.4,1.3,6.1,7.2,10.1,13.3,9l1.6-.3,1-.2c.2,0,.4-.1.6-.2.8-.2,1.6-.5,2.3-.8,4.2-2,6.8-6.3,6.6-11,0-.5,0-1-.1-1.5l-1.2-6.7c-.2-.9-.4-1.7-.8-2.5-2.1-4.8-7.3-7.8-12.7-6.9Z"/>
	<path d="M334.2,401.9l-13.8-46.9c-1.2-3.9-5.1-6.4-9.1-5.7l-12.6,2.2c-4.1.7-6.9,4.4-6.7,8.4l3.1,48.7,3.7,59.6c.1,2.3,1.3,4.4,3.1,5.8,1.6,1.3,3.5,1.8,5.5,1.7.3,0,.6,0,.9,0l24-4.2,12.5-2.2c2.3-.4,4.2-1.7,5.5-3.7,1.2-2,1.5-4.3.9-6.5l-16.9-57.2ZM339,457.5c-1.2,1.9-3.2,3.3-5.4,3.7l-14.6,2.6-3.1.5c-2.2.4-4.6-.2-6.3-1.6-1.5-1.2-2.5-2.9-2.9-4.8,0-.3-.2-.7-.2-1l-.7-11-.5-8.5-.7-11.9-.5-8.7-.4-6.3-.3-5.4v-.8c-.3-4.1,2.5-7.7,6.6-8.4l6.1-1.1c4-.7,7.9,1.7,9.1,5.6l1.7,5.9,1.3,4.4,3.3,11.4,2.4,8.2,3.4,11.5,2.4,8.1.3,1c.6,2.2.3,4.5-.9,6.5Z"/>
	<path d="M331.7,442.8l-3.3-11.1-2.5-8.6-3.2-11-1-3.5-1.2-4.1-.5-1.6-.2-.8c-.4-1.2-1.6-2-2.8-1.7l-6.1,1.1c-1.2.2-2.1,1.3-2.1,2.6v.4s.4,6.3.4,6.3l.3,5,.6,9.1.7,11.5.6,8.9.7,11.4c0,0,0,.1,0,.2,0,.6.4,1.2.9,1.6.6.4,1.3.6,2,.5l3.1-.5,14.6-2.6c.7-.1,1.3-.5,1.7-1.1s.5-1.3.3-2l-.4-1.4-2.5-8.5Z"/>
    <path d="M458.8,184.3c-19.1,0-37.5,7.6-51,21.1-13.5,13.5-21.1,31.9-21.1,51s7.6,37.5,21.1,51c13.5,13.5,31.9,21.1,51,21.1s37.5-7.6,51-21.1c13.5-13.5,21.1-31.9,21.1-51,0-19.1-7.6-37.5-21.1-51-13.5-13.5-31.9-21.1-51-21.1h0ZM458.8,323.1c-17.7,0-34.6-7-47.2-19.5-12.5-12.5-19.5-29.5-19.5-47.2s7-34.6,19.5-47.2c12.5-12.5,29.5-19.5,47.2-19.5s34.6,7,47.2,19.5c12.5,12.5,19.5,29.5,19.5,47.2,0,17.7-7,34.6-19.6,47.1-12.5,12.5-29.5,19.5-47.1,19.6h0ZM458.8,198.6c-15.3,0-30,6.1-40.9,16.9-10.8,10.9-16.9,25.6-16.9,40.9s6.1,30,16.9,40.9c10.9,10.8,25.6,16.9,40.9,16.9s30-6.1,40.9-16.9c10.8-10.9,16.9-25.6,16.9-40.9,0-15.3-6.1-30-17-40.9-10.8-10.8-25.5-16.9-40.9-17h0ZM458.8,308.8c-13.9,0-27.2-5.5-37.1-15.3-9.8-9.8-15.3-23.2-15.3-37.1s5.5-27.2,15.3-37.1c9.8-9.8,23.2-15.3,37.1-15.3s27.2,5.5,37.1,15.3c9.8,9.8,15.3,23.2,15.3,37.1,0,13.9-5.6,27.2-15.4,37-9.8,9.8-23.1,15.4-37,15.4h0ZM447.9,235.1c-4.4,0-8.4,2.6-10.1,6.7-1.7,4.1-.8,8.8,2.4,11.9,3.1,3.1,7.8,4,11.9,2.4,4.1-1.7,6.7-5.7,6.7-10.1s-1.1-5.7-3.2-7.7c-2-2-4.8-3.2-7.7-3.2h0ZM447.9,251.4c-2.2,0-4.2-1.3-5-3.4-.8-2-.4-4.4,1.2-5.9,1.6-1.6,3.9-2,5.9-1.2,2,.9,3.4,2.8,3.4,5s-.6,2.8-1.6,3.8-2.4,1.6-3.8,1.6h0ZM447.9,258.9c-4.4,0-8.4,2.6-10.1,6.7-1.7,4.1-.8,8.8,2.4,11.9,3.1,3.1,7.8,4,11.9,2.4,4.1-1.7,6.7-5.7,6.7-10.1s-1.1-5.7-3.2-7.7-4.8-3.2-7.7-3.2h0ZM447.9,275.2c-2.2,0-4.2-1.3-5-3.4-.8-2-.4-4.4,1.2-5.9,1.6-1.6,3.9-2,5.9-1.2,2,.9,3.4,2.8,3.4,5s-.6,2.8-1.6,3.8-2.4,1.6-3.8,1.6h0ZM472.1,235.1c-4.4,0-8.4,2.6-10.1,6.7-1.7,4.1-.8,8.8,2.4,11.9,3.1,3.1,7.8,4,11.9,2.4,4.1-1.7,6.7-5.7,6.7-10.1s-1.2-5.7-3.2-7.7c-2.1-2.1-4.9-3.2-7.8-3.1h.1ZM472.1,251.4c-2.2,0-4.2-1.3-5-3.4-.8-2-.4-4.4,1.2-5.9,1.6-1.6,3.9-2,5.9-1.2,2,.9,3.4,2.8,3.4,5s-.6,2.9-1.6,3.9c-1.1,1-2.5,1.6-3.9,1.6h.1ZM472.1,258.9c-4.4,0-8.4,2.6-10.1,6.7-1.7,4.1-.8,8.8,2.4,11.9,3.1,3.1,7.8,4,11.9,2.4,4.1-1.7,6.7-5.7,6.7-10.1s-1.2-5.7-3.2-7.7c-2.1-2.1-4.9-3.2-7.8-3.1h.1ZM472.1,275.2c-2.2,0-4.2-1.3-5-3.4-.8-2-.4-4.4,1.2-5.9,1.6-1.6,3.9-2,5.9-1.2,2,.9,3.4,2.8,3.4,5s-.6,2.9-1.6,3.9c-1.1,1-2.5,1.6-3.9,1.6h.1Z"/>
</svg>