<svg xmlns="http://www.w3.org/2000/svg" version="1.1" viewBox="0 0 595.3 595.3" fill="currentColor">
	<path d="M567.3,140.1v270.4c0,27.1-21.9,49-49,49h-29.2c-2.8,0-5.1-2.3-5.1-5.1s2.3-5.1,5.1-5.1h29.2c21.4,0,38.8-17.4,38.8-38.8V140.1c0-21.4-17.4-38.8-38.8-38.8H63.8c-14.1,0-25.5,11.4-25.5,25.5s11.4,25.6,25.5,25.6h404.5c2.8,0,5.1,2.3,5.1,5.1v297.5c0,27-22,48.9-49,49H77.1c-27,0-49-21.9-49-49V177.6c0-2.8,2.3-5.1,5.1-5.1s5.1,2.3,5.1,5.1v277.4c0,21.4,17.4,38.8,38.8,38.8h347.3c21.4,0,38.8-17.4,38.8-38.8V162.8H63.8c-19.7,0-35.7-16-35.7-35.8s16-35.7,35.7-35.7h454.5c27,0,48.9,21.8,49,48.8h0ZM64.4,454.4h0c0,1.4.5,2.7,1.5,3.6,1,1,2.3,1.5,3.6,1.5h346.3c2.8,0,5.1-2.3,5.1-5.1s-2.3-5.1-5.1-5.1H69.7c-2.8,0-5.1,2.3-5.1,5.1h-.2ZM81.8,263.6c0-14.7,11.9-26.6,26.6-26.7h140.3c14.7,0,26.7,11.9,26.7,26.7s-11.9,26.6-26.7,26.6H108.4c-14.7,0-26.6-12-26.6-26.6ZM92,263.6c0,9,7.3,16.4,16.4,16.4h140.3c9.1,0,16.5-7.4,16.5-16.4s-7.4-16.5-16.5-16.5H108.4c-9.1,0-16.4,7.4-16.4,16.5ZM81.8,340c0-14.7,11.9-26.6,26.6-26.6h140.3c7.3-.4,14.4,2.3,19.7,7.3,5.3,5,8.3,12,8.3,19.3s-3,14.3-8.3,19.3c-5.3,5-12.4,7.7-19.7,7.3H108.4c-14.6,0-26.5-11.8-26.6-26.5h0ZM92,340c0,9,7.3,16.4,16.4,16.4h140.3c4.5.3,9-1.3,12.3-4.4,3.3-3.1,5.2-7.4,5.2-12s-1.9-8.9-5.2-12c-3.3-3.1-7.8-4.7-12.3-4.4H108.4c-4.4,0-8.6,1.7-11.7,4.9-3.1,3.1-4.8,7.3-4.7,11.7h0ZM126.6,204.4c2.8,0,5.1-2.3,5.1-5.1s-2.3-5.1-5.1-5.1h-33.6c-2.8,0-5.1,2.3-5.1,5.1s2.3,5.1,5.1,5.1h33.6ZM185.1,204.4c2.8,0,5.1-2.3,5.1-5.1s-2.3-5.1-5.1-5.1h-33.5c-2.8,0-5.1,2.3-5.1,5.1s2.3,5.1,5.1,5.1h33.5ZM243.6,204.4c2.8,0,5.1-2.3,5.1-5.1s-2.3-5.1-5.1-5.1h-33.5c-2.8,0-5.1,2.3-5.1,5.1s2.3,5.1,5.1,5.1h33.5ZM302.2,194.2h-33.6c-2.8,0-5.1,2.3-5.1,5.1s2.3,5.1,5.1,5.1h33.6c2.8,0,5.1-2.3,5.1-5.1s-2.3-5.1-5.1-5.1ZM327.1,204.4h33.6c2.8,0,5.1-2.3,5.1-5.1s-2.3-5.1-5.1-5.1h-33.6c-2.8,0-5.1,2.3-5.1,5.1s2.3,5.1,5.1,5.1ZM385.7,204.4h33.5,0c2.8,0,5.1-2.3,5.1-5.1s-2.3-5.1-5.1-5.1h-33.2c-2.8,0-5.1,2.3-5.1,5.1s2.3,5.1,5.1,5.1h-.3ZM93,399.5c-2.8,0-5.1,2.3-5.1,5.1s2.3,5.1,5.1,5.1h33.6c2.8,0,5.1-2.3,5.1-5.1s-2.3-5.1-5.1-5.1h-33.6ZM151.6,399.5c-2.8,0-5.1,2.3-5.1,5.1s2.3,5.1,5.1,5.1h33.5,0c2.8,0,5.1-2.3,5.1-5.1s-2.3-5.1-5.1-5.1h-33.5ZM243.3,399.5h-33.2c-2.8,0-5.1,2.3-5.1,5.1s2.3,5.1,5.1,5.1h33.2c2.8,0,5.1-2.3,5.1-5.1s-2.3-5.1-5.1-5.1ZM301.9,399.5h-33.3c-2.8,0-5.1,2.3-5.1,5.1s2.3,5.1,5.1,5.1h33.6c2.8,0,5.1-2.3,5.1-5.1s-2.3-5.1-5.1-5.1h-.3ZM326.9,409.7h33.6,0c2.8,0,5.1-2.3,5.1-5.1s-2.3-5.1-5.1-5.1h-33.3c-2.8,0-5.1,2.3-5.1,5.1s2.3,5.1,5.1,5.1h-.3ZM385.4,409.7h33.5,0c2.8,0,5.1-2.3,5.1-5.1s-2.3-5.1-5.1-5.1h-32.9c-2.8,0-5.1,2.3-5.1,5.1s2.3,5.1,5.1,5.1h-.6Z"/>
</svg>