<svg xmlns="http://www.w3.org/2000/svg" viewBox="0 0 595.3 595.3" fill="currentColor">
	<path d="M141.1,350.9c-29.1,0-52.9,26.2-52.9,58.4s23.7,58.4,52.9,58.4,52.9-26.2,52.9-58.4-23.7-58.4-52.9-58.4ZM141.1,456.4c-23.7,0-42.7-21-42.7-47.2s19-47.2,42.7-47.2,42.7,21,42.7,47.2-19,47.2-42.7,47.2Z"/>
	<path d="M527.4,220.6h-75.9l-.7-29.2v-.7c-.7-5.2-2.7-10.5-6.1-14.2-7.5-9-22.4-13.5-40.7-12-10.2.7-43.4,12-76.6,24.7l11.5-45.7c.7-3.7.7-7.5.7-12,0-47.2-34.6-85.3-77.2-85.3s-49.5,14.2-64.4,37.4L49,320.9c-5.4,6.7-10.2,15-14.2,22.5l-.7,1.5c-9.5,18.7-14.9,40.4-14.9,63.6,0,74.1,54.9,134.7,122,134.7s34.6-4.5,49.5-12c1.4-.7,59.6-24,115.2-44.2l-2.7,21.7v.7c0,3,0,6.7,1.4,9,6.8,13.5,32.5,17.2,71.8,17.2h199.9l-48.8-315.1ZM207.5,91.1c12.9-20.2,33.2-32.9,55.6-32.9,37.3,0,67.1,32.9,67.1,74.1s-.7,9.7-1.4,14.2l-12.9,47.9-54.2,198.4c-7.5-66.6-59-118.3-120.6-118.3s-44,6.7-62.3,18.7L207.5,91.1ZM141.8,533.5c-62.3-.7-112.5-56.1-112.5-124.2s4.7-41.2,13.6-58.4l14.9-23.2c20.3-25.4,50.1-41.9,84-41.9,61.7,0,111.8,55.4,111.8,123.5s-1.4,22.5-4.1,32.9l-2,6.7c-14.9,48.7-56.9,84.6-105.7,84.6ZM224.5,507.3c14.2-14.2,24.4-32.9,31.2-53.1l68.4-250.7c3.4-1.5,73.9-26.2,80.6-26.2,14.9,0,26.4,1.5,32.5,8.2,2,2.2,2.7,4.5,3.4,7.5l8.8,267.2c-14.2-13.5-37.3-13.5-50.8-12.7-11.5.7-44,12-80.6,24.7-3.4.7-70.5,26.2-93.5,35.2ZM450.1,488.6c-.7,8.2-2.7,12.7-6.1,15.7-9.5,6.7-30.5-1.5-50.8-9.7-27.1-10.5-57.6-22.5-77.2-7.5l.7-4.5c37.3-12,71.8-23.2,82.7-24.7,20.3-1.5,36.6,2.2,44.7,11.2,4.7,5.2,6.8,11.2,6.1,19.5ZM387.8,525.3c-16.9,0-67.8.7-73.9-11.2-.7-2.2-.7-5.2,2-9,13.6-23.2,44.7-10.5,74.5.7,23.7,9,46.1,18,59.6,8.2,6.1-4.5,10.2-12.7,10.8-24,0-4.5-8.8-258.2-8.8-258.2h67.1l45.4,293.4c-27.1,0-134.8-.7-176.9,0Z"/>
	<path d="M141.1,291.7c-59,0-107.1,53.1-107.1,118.3s48.1,117.5,107.1,117.5,107.1-53.1,107.1-118.3-48.1-117.5-107.1-117.5ZM141.1,516.3c-53.5,0-96.2-47.9-96.2-106.3s42.7-107,96.2-107,96.2,47.9,96.2,106.3-43.4,107-96.2,107Z"/>
	<path d="M141.1,306.7c-51.5,0-93.5,46.4-93.5,103.3s42,102.5,93.5,102.5,93.5-46.4,93.5-103.3-42-102.5-93.5-102.5ZM141.1,501.3c-46.1,0-82.7-41.2-82.7-91.3s36.6-92.1,82.7-92.1,82.7,41.2,82.7,91.3-37.3,92.1-82.7,92.1Z"/>
	<path d="M141.1,321.7c-44,0-80,39.7-80,88.3s35.9,87.6,80,87.6,80-39.7,80-88.3-35.9-87.6-80-87.6ZM141.1,486.3c-38.6,0-69.1-34.4-69.1-76.3s30.5-77.1,69.1-77.1,69.1,34.4,69.1,76.3-31.2,77.1-69.1,77.1Z"/>
	<path d="M141.1,336.6c-36.6,0-66.4,32.9-66.4,73.4s29.8,73.4,66.4,73.4,66.4-32.9,66.4-73.4-29.8-73.4-66.4-73.4ZM141.1,471.4c-30.5,0-55.6-27.7-55.6-61.4s25.1-61.4,55.6-61.4,55.6,27.7,55.6,61.4-25.1,61.4-55.6,61.4Z"/>
</svg>