<svg xmlns="http://www.w3.org/2000/svg" viewBox="0 0 595.3 595.3" fill="currentColor">
	<path d="M448.3,430.3h-.1c-5.5,0-10,4.5-10.1,10l-.3,40.3c-44.5.1-227.6.1-272.2,0v-205.8c0-4.2-2.5-7.9-6.4-9.5-3.9-1.6-8.3-.8-11.3,2.3l-.3.3-51.9,56.4c-15.1-16.4-50-54.3-64-69.7L160.2,114.7c21.8,0,51.9,0,65.7.1,4.7,15.8,13.6,29.8,25.5,40.3,14.2,12.5,32.1,19.3,50.4,19.3s36.2-6.8,50.4-19.3c11.9-10.5,20.8-24.6,25.5-40.3,13.9,0,43.9-.1,65.7-.1l75.7,82.4c3.8,4.1,10.1,4.4,14.3.6,4.1-3.8,4.3-10.1.6-14.3l-76.2-82.9c-3.5-3.8-8.4-6-13.4-6h-37.3c-9.3,0-18.6,0-25.6,0h-8.5c-4.3,0-11.4,0-13,8.1-2.9,14.6-10.4,27.8-21,37.2-10.5,9.2-23.6,14.3-37,14.3s-26.6-5.1-37.1-14.3c-10.6-9.3-18.1-22.5-21-37.1-1.6-8.1-9-8.2-13-8.2h-8.5c-7,0-16.3,0-25.6,0h-37.3c-5.1,0-10,2.2-13.4,6L10.5,247.8c-1.7,1.9-2.7,4.3-2.7,6.8,0,3.9,1.3,5.3,6,10.5,2.1,2.3,5.2,5.7,8.8,9.6,7.2,7.9,17,18.5,26.7,29,9.7,10.5,19.4,21.1,26.7,29,3.7,3.9,6.7,7.2,8.9,9.6,4.8,5.1,6.3,6.8,10.8,6.8s5.5-1.2,7.4-3.2l42.2-46v190.7c0,3.5,2.3,10,10.8,10.1h290.7c8.6,0,10.8-6.7,10.8-10l.5-50.2c0-5.6-4.4-10.1-10-10.2h0Z"/>
	<path d="M429.7,244.6c-13.2,0-24,10.8-24,24s10.8,24.1,24,24.1,24.1-10.8,24.1-24.1-10.8-24-24.1-24ZM429.7,279.2c-5.9,0-10.5-4.8-10.5-10.7s4.8-10.5,10.5-10.5,10.7,4.8,10.7,10.5-4.8,10.7-10.7,10.7Z"/>
	<path d="M561.3,218.3h-168.5c-7.4,0-14,3.1-18.8,8h-3.6c-3.7,0-6.7,3-6.7,6.7s1.4,4.8,3.6,5.9h0c-.3,1.8-.6,3.6-.6,5.4v151c0,.6,0,1.3.1,1.9h0c-.7,1.1-1.2,2.4-1.2,3.8,0,3.7,3,6.7,6.7,6.7h.5c2.4,1.9,5.4,3,8.6,3.1,3.4,1.6,7.2,2.5,11.3,2.5h168.5c4.1,0,7.9-.9,11.3-2.5,8.2-.3,14.8-7.1,14.8-15.4v-151c0-14.4-11.7-26.1-26.1-26.1ZM574,387.3c0,4.1-2,7.8-5,10.1h-183.7c-.4-.3-.8-.6-1.2-1l-.2-.2c-2.3-2.3-3.7-5.4-3.7-8.9v-20.7l36.6-36.5c8.2-8.1,21.3-8.7,30.3-1.6l12.8,12.7.8.7c2.3,1.7,5.2,2.6,8.1,2.6s6-1,8.3-2.8l10-10,31.2-30.9c10.5-10.5,26-14.2,40.2-9.6,4.5,1.4,8.6,3.8,12.5,7l3,3v86.2h0ZM574,283.7c-3.6-2.3-7.4-4.1-11.4-5.3-19.1-6.1-39.7-1.2-53.8,12.9l-21,20.8-19.1,19.1-5.7-5.6h.1c0-.1-4.8-4.9-4.8-4.9-14.1-13.9-36.9-13.9-51,0l-27.2,27.1v-103.3c0-2.6.8-5,2.1-7,.1-.2.2-.3.3-.5v-.2c.1,0,.1-.1.1-.1,2.4-3,6-4.9,10-4.9h168.5c7,0,12.7,5.7,12.7,12.7v39.4h0Z"/>
	<path d="M266.7,239.8c3.7,0,6.7-3,6.7-6.7s-3-6.7-6.7-6.7h-13c-3.7,0-6.7,3-6.7,6.7s3,6.7,6.7,6.7h13Z"/>
	<path d="M305.6,239.8c3.7,0,6.7-3,6.7-6.7s-3-6.7-6.7-6.7h-13c-3.7,0-6.7,3-6.7,6.7s3,6.7,6.7,6.7h13Z"/>
	<path d="M333.5,407.7h13c3.7,0,6.7-3,6.7-6.7s-3-6.7-6.7-6.7h-13c-3.7,0-6.7,3-6.7,6.7s3,6.7,6.7,6.7Z"/>
	<path d="M216.9,407.7h13c3.7,0,6.7-3,6.7-6.7s-3-6.7-6.7-6.7h-13c-3.7,0-6.7,3-6.7,6.7s3,6.7,6.7,6.7Z"/>
	<path d="M294.6,394.3c-3.7,0-6.7,3-6.7,6.7s3,6.7,6.7,6.7h13c3.7,0,6.7-3,6.7-6.7s-3-6.7-6.7-6.7h-13Z"/>
	<path d="M255.7,394.3c-3.7,0-6.7,3-6.7,6.7s3,6.7,6.7,6.7h13c3.7,0,6.7-3,6.7-6.7s-3-6.7-6.7-6.7h-13Z"/>
	<path d="M208.2,233c0,3.7,3.1,6.7,6.8,6.7h12.9c3.7,0,6.7-3,6.7-6.7s-3-6.7-6.7-6.7h-12.9c-3.7,0-6.7,3-6.7,6.7h0Z"/>
	<path d="M198,253.2v13c0,3.7,3,6.7,6.7,6.7s6.7-3,6.7-6.7v-13c0-3.7-3-6.7-6.7-6.7s-6.7,3-6.7,6.7Z"/>
	<path d="M198,305.1c0,3.7,3,6.7,6.7,6.7s6.7-3,6.7-6.7v-13c0-3.7-3-6.7-6.7-6.7s-6.7,3-6.7,6.7v13Z"/>
	<path d="M198,344c0,3.7,3,6.7,6.7,6.7s6.7-3,6.7-6.7v-13c0-3.7-3-6.7-6.7-6.7s-6.7,3-6.7,6.7v13Z"/>
	<path d="M198,382.8c0,3.7,3,6.7,6.7,6.7s6.7-3,6.7-6.7v-13c0-3.7-3-6.7-6.7-6.7s-6.7,3-6.7,6.7v13Z"/>
	<path d="M344.5,239.8c3.7,0,6.7-3,6.7-6.7s-3-6.7-6.7-6.7h-13c-3.7,0-6.7,3-6.7,6.7s3,6.7,6.7,6.7h13Z"/>
	<path d="M342.8,312.8c0-3-1.2-5.7-3.1-7.7-1.9-2-4.5-3.2-7.4-3.2h-33.1v-22.9c0-4.6-3.5-8.5-8.1-8.6-2.3,0-4.5.8-6.1,2.5l-13.4,13-16.5,16.2-4.5,4.5c-3.4,3.6-3.4,9.4,0,13l21,20.2,13.4,12.6c2.3,3.8,7.1,5,10.9,2.7,3.1-2,4.5-6,3.4-9.6v-21.8h33.1c5.8,0,10.5-4.9,10.5-10.9h-.1Z"/>
</svg>